<svg xmlns="http://www.w3.org/2000/svg" viewBox="0 0 64 64" x="0px" y="0px"><g><path d="M51,11a1,1,0,0,0,2,0,3,3,0,0,1,3-3,1,1,0,0,0,0-2,3,3,0,0,1-3-3,1,1,0,0,0-2,0,3,3,0,0,1-3,3,1,1,0,0,0,0,2A3,3,0,0,1,51,11Zm1-5.031A4.988,4.988,0,0,0,53.031,7,4.988,4.988,0,0,0,52,8.031,4.988,4.988,0,0,0,50.969,7,4.988,4.988,0,0,0,52,5.969Z" fill="#ffffff"/><rect x="4" y="57" width="2" height="2" fill="#ffffff"/><path d="M32,9a4,4,0,1,0-4,4A4,4,0,0,0,32,9ZM26,9a2,2,0,1,1,2,2A2,2,0,0,1,26,9Z" fill="#ffffff"/><rect x="38" y="7" width="2" height="2" fill="#ffffff"/><rect x="48" y="57" width="2" height="2" fill="#ffffff"/><path d="M20,33a20.832,20.832,0,0,1,5.567-14.2,12,12,0,1,0-5.148,18.342A21.108,21.108,0,0,1,20,33Zm-4-3H14V28h2Zm0-12a7.452,7.452,0,0,0-5.769,2.213C7.593,23.1,7.991,27.862,8,27.91L6,28.09c-.021-.23-.477-5.692,2.751-9.226A9.359,9.359,0,0,1,16,16Z" fill="#ffffff"/><circle cx="50" cy="34" r="1.031" fill="#ffffff"/><circle cx="38" cy="25" r="1.031" fill="#ffffff"/><circle cx="28" cy="51" r="9" fill="#ffffff"/><path d="M41,14A19.007,19.007,0,0,0,22,33a19.122,19.122,0,0,0,.542,4.513,18.566,18.566,0,0,0,1.172,3.357A11,11,0,0,1,39,51c0,.3-.021.586-.044.875A18.993,18.993,0,1,0,41,14ZM39,29a1,1,0,0,1-2,0,3,3,0,0,0-3-3,1,1,0,0,1,0-2,3,3,0,0,0,3-3,1,1,0,0,1,2,0,3,3,0,0,0,3,3,1,1,0,0,1,0,2A3,3,0,0,0,39,29Zm5,17H42V44h2ZM54,35a3,3,0,0,0-3,3,1,1,0,0,1-2,0,3,3,0,0,0-3-3,1,1,0,0,1,0-2,3,3,0,0,0,3-3,1,1,0,0,1,2,0,3,3,0,0,0,3,3,1,1,0,0,1,0,2ZM42,18l0-2c.139,0,13.9.182,15.991,15.868l-1.982.264C54.153,18.213,42.493,18,42,18Z" fill="#ffffff"/><path d="M14,50a3,3,0,0,1-3-3,1,1,0,0,0-2,0,3,3,0,0,1-3,3,1,1,0,0,0,0,2,3,3,0,0,1,3,3,1,1,0,0,0,2,0,3,3,0,0,1,3-3,1,1,0,0,0,0-2Zm-4,2.031A4.988,4.988,0,0,0,8.969,51,4.988,4.988,0,0,0,10,49.969,4.988,4.988,0,0,0,11.031,51,4.988,4.988,0,0,0,10,52.031Z" fill="#ffffff"/><rect x="14" y="43" width="2" height="2" fill="#ffffff"/><path d="M58,51a3,3,0,1,0,3,3A3,3,0,0,0,58,51Zm0,4a1,1,0,1,1,1-1A1,1,0,0,1,58,55Z" fill="#ffffff"/></g></svg>